<svg xmlns="http://www.w3.org/2000/svg" viewBox="0 0 400 400" fill="none"><g><path fill="#283C5D" d="M228.04,223.54c-0.17,0.33 -0.06,0.5 0.31,0.51c27.13,0.09 54.23,0.1 81.3,0.04c9.9,-0.03 11.88,16.09 2.15,19.61c-1.52,0.55 -3.91,0.82 -7.18,0.82c-28.68,0.01 -57.53,-0.01 -86.55,-0.05c-0.46,-0.01 -0.82,0.18 -1.08,0.56c-0.73,1.08 -1.38,2.34 -1.95,3.78c-2.86,7.27 -5.28,14.69 -7.25,22.25c-0.37,1.39 -1.6,3.18 -1.42,4.75c0.06,0.54 0.36,0.81 0.91,0.81c28.48,0.07 56.14,0.09 82.99,0.05c1.56,-0.01 3.25,0.65 5.07,1.97c4.55,3.31 5.15,10.09 1.91,14.39c-2.22,2.97 -6.68,3.63 -10.69,3.64c-27.84,0.03 -55.68,0.03 -83.52,0.02c-0.46,0 -0.7,0.23 -0.74,0.69c-0.83,10.3 -1.16,20.35 -0.33,29.59c0.04,0.41 0.26,0.62 0.68,0.62c17.25,0.01 34.47,0.01 51.66,-0.01c6.7,0 12.21,8.58 8.53,14.54c-2.19,3.57 -5.78,5.35 -10.77,5.35c-14.94,0 -29.9,-0.02 -44.86,-0.05c-0.1,0 -0.19,0.01 -0.29,0.04c-0.09,0.02 -0.18,0.06 -0.26,0.1c-0.08,0.05 -0.16,0.11 -0.23,0.18c-0.06,0.07 -0.12,0.14 -0.17,0.22c-0.05,0.09 -0.08,0.18 -0.11,0.27c-0.02,0.09 -0.04,0.19 -0.04,0.28c0.01,0.1 0.02,0.19 0.04,0.29c0.03,0.09 0.07,0.18 0.11,0.26c1.7,2.87 2.38,6.03 2.04,9.48c-0.23,2.25 -2.8,6.56 -4.68,7.95c-5.5,4.1 -13.3,2.77 -18.5,-1.08c-4.62,-3.4 -9.8,-5.95 -14.07,-9.79c-3.14,-2.85 -6.94,-4.33 -9.86,-7.59c-0.32,-0.36 -0.72,-0.53 -1.18,-0.53c-24.96,0.09 -49.79,0.1 -74.5,0.01c-4.3,-0.01 -8.2,0.47 -11.74,-1.6c-5.91,-3.45 -6.24,-11.3 -1.27,-15.76c1.84,-1.65 3.83,-2.48 5.98,-2.47c21.26,0.02 42.49,0.03 63.69,0.02c0.04,0 0.07,0 0.11,-0.01c0.04,-0.01 0.07,-0.02 0.1,-0.04c0.04,-0.02 0.07,-0.05 0.09,-0.07c0.03,-0.03 0.05,-0.06 0.07,-0.09c0.02,-0.04 0.03,-0.07 0.04,-0.11c0.01,-0.03 0.01,-0.07 0.01,-0.11c0,-0.04 0,-0.07 -0.02,-0.11c-0.01,-0.04 -0.02,-0.07 -0.04,-0.1c-1.81,-2.94 -3.76,-5.77 -5.87,-8.48c-3.99,-5.15 -5.83,-9.14 -8.85,-13.31c-2.92,-4.04 -5.19,-8.56 -7.34,-13.05c-0.72,-1.49 -1.84,-2.61 -2.48,-4.05c-1.89,-4.28 -3.62,-8.63 -5.2,-13.04c-0.53,-1.45 -1.58,-2.7 -2.11,-4.27c-3.61,-10.37 -5.83,-21.04 -6.64,-32.01c-0.03,-0.37 -0.18,-0.67 -0.45,-0.92c-4.8,-4.49 -9.06,-9.43 -12.77,-14.81c-1.29,-1.88 -2.14,-4.5 -3.73,-6.59c-1.68,-2.23 -2.37,-3.83 -3.29,-6.19c-0.14,-0.35 -0.41,-0.53 -0.8,-0.53c-5.36,0.07 -10.7,0.08 -16.02,0.04c-6.73,-0.04 -10.52,-3.16 -11.37,-9.34c-0.16,-1.2 0.13,-2.73 0.89,-4.59c3.25,-7.91 13.29,-6.06 19.87,-6.02c0.03,0 0.06,0 0.09,0c0.03,-0.01 0.06,-0.01 0.09,-0.02c0.03,0 0.06,-0.01 0.09,-0.02c0.03,-0.01 0.06,-0.02 0.08,-0.04c0.03,-0.01 0.06,-0.02 0.08,-0.04c0.03,-0.01 0.05,-0.03 0.07,-0.05c0.03,-0.02 0.05,-0.04 0.07,-0.06c0.02,-0.02 0.04,-0.04 0.06,-0.06c0.02,-0.03 0.04,-0.05 0.06,-0.08c0.01,-0.02 0.03,-0.05 0.04,-0.07c0.01,-0.03 0.03,-0.06 0.04,-0.09c0.01,-0.02 0.02,-0.05 0.02,-0.08c0.01,-0.03 0.02,-0.06 0.02,-0.09c0,-0.03 0.01,-0.06 0.01,-0.09c0,-0.03 0,-0.06 -0.01,-0.09c0,-0.03 0,-0.06 -0.01,-0.09c-2.21,-11.37 -2.32,-22.77 -0.32,-34.19c0.01,-0.07 0.02,-0.13 0.02,-0.2c0,-0.07 0,-0.14 -0.01,-0.21c-0.01,-0.06 -0.02,-0.13 -0.04,-0.2c-0.02,-0.06 -0.04,-0.13 -0.06,-0.19c-0.03,-0.06 -0.06,-0.12 -0.1,-0.18c-0.03,-0.06 -0.07,-0.12 -0.11,-0.17c-0.04,-0.05 -0.09,-0.1 -0.14,-0.15c-0.05,-0.05 -0.1,-0.09 -0.16,-0.13c-3.21,-2.26 -6.08,-3.87 -8.95,-6.92c-2.39,-2.53 -5.09,-4.17 -7,-7.06c-2.42,-3.63 -5.4,-7.11 -7.07,-10.94c-5.59,-12.83 -9.53,-26.91 -10.01,-41.77c-0.55,-17.19 -1.24,-34.97 13.79,-46.63c3.3,-2.57 6.52,-3.6 9.95,-5.22c5.48,-2.61 12.83,-3.16 18.83,-3.38c7.49,-0.27 14.98,-0.4 22.47,-0.39c58.98,0.04 117.97,0.06 176.95,0.08c13.96,0.01 24.47,1.06 35.61,7.99c1.5,0.92 3.01,2.32 4.51,4.18c1.8,2.22 3.94,3.95 5.18,6.44c4.73,9.43 4.96,19.01 5.03,29.35c0.08,13.96 -2.03,27.62 -6.33,40.98c-0.13,0.43 0.02,0.65 0.47,0.64c3.42,-0.02 9.75,-0.06 19,-0.11c12.28,-0.08 12.75,20.15 -0.54,20.25c-10.6,0.09 -21.21,0.11 -31.81,0.07c-0.09,0 -0.17,0.01 -0.26,0.03c-0.09,0.02 -0.17,0.05 -0.25,0.09c-0.08,0.03 -0.16,0.08 -0.23,0.14c-0.07,0.05 -0.13,0.11 -0.19,0.18c-1.95,2.33 -4.4,4.05 -6.5,6.7c-2.03,2.53 -5.98,4.4 -8.6,7.16c-2.45,2.58 -5.74,4.08 -8.29,6.17c-3.44,2.8 -6.31,4.59 -9.13,7.04c-0.89,0.78 -0.75,1.16 0.42,1.16c8.39,0 16.89,0.01 25.5,0.04c5.73,0.01 9.13,7.72 7.85,12.37c-1.36,4.93 -4.91,7.42 -10.65,7.46c-15.58,0.1 -31.16,0.18 -46.73,0.22c-0.36,0 -0.69,0.09 -1,0.28c-4.54,2.69 -6.94,6.29 -10.86,9.59c-2.65,2.23 -4.28,5.08 -6.7,7.27c-3.4,3.11 -5.2,6.67 -8.26,10.04c-2.09,2.3 -3.2,4.19 -4.41,6.73zM69.4,110.88c0.57,1.83 1.25,3.31 2.02,4.46c2.07,4.84 4.07,8.56 6.02,11.16c5.97,7.96 13.6,14.91 22.89,20.86c-4.24,16.23 -3.94,31.91 0.91,47.05c1.48,4.65 4.1,9.56 6.36,14.17c2.5,5.16 6.06,8.93 9.75,13.19c1.93,2.22 7.65,5.08 7.66,8.17c0.05,13.5 2.54,24.05 7.25,36.91c1.69,4.67 4.32,9.37 6.55,14.05c3.11,6.57 6.86,12.42 10.46,18.59c3.04,5.23 8.53,12.62 16.47,22.17c4.36,5.24 9.28,9.92 14.19,14.58c1.17,1.1 1.64,0.86 1.43,-0.73l-1.64,-12.38c-0.75,-15.17 0.24,-29.33 2.94,-42.46c1.34,-6.51 3.51,-14.85 6.52,-25.02c1.7,-5.82 4.43,-11.77 6.69,-17.61c2.37,-6.11 5.79,-11.71 8.7,-17.61c1.51,-3.06 4.15,-5.66 5.74,-9.1c5.59,-8.36 12.14,-16.45 19.63,-24.27c4.59,-4.71 7.54,-7.65 8.85,-8.83c11.96,-10.75 19.74,-17.31 23.34,-19.69c3.71,-2.45 6.99,-5.76 10.6,-8.67l19.77,-15.57c7.73,-6.49 12.9,-13.46 16.36,-23.32c2.07,-5.88 3.31,-9.75 3.72,-11.59c1.33,-5.88 1.84,-13.3 1.53,-22.27c0.38,-11.69 -1.19,-22.14 -14.85,-24.37c-4.18,-0.68 -6.99,-1.02 -8.43,-1.03c-50.92,-0.29 -101.84,-0.32 -152.76,-0.08l-11.54,0.26c-13.73,-0.58 -27.4,-0.48 -41.01,0.28c-4.5,0.26 -8.82,1.23 -12.97,2.92c-7.8,3.2 -8.17,14.67 -7.86,22.77c-0.28,11.09 1.29,22.1 4.71,33.01z" /><path fill="#5C98C3" d="M85.517 52.1766C81.017 52.4366 76.697 53.4066 72.557 55.1066C64.747 58.2966 64.377 69.7766 64.687 77.8666C67.547 77.3966 70.087 77.5266 72.307 78.2666C77.137 79.8366 79.177 89.8566 80.407 94.3766C81.927 99.9166 84.017 105.207 86.677 110.267C89.097 113.437 90.957 117.067 93.657 119.747C99.517 125.587 104.337 128.727 112.697 128.807C119.187 128.867 125.597 128.947 132.087 128.827L131.857 128.497C131.827 128.467 131.807 128.427 131.787 128.387C131.777 128.357 131.767 128.317 131.757 128.277C131.747 128.227 131.747 128.187 131.747 128.147C131.747 128.107 131.757 128.067 131.767 128.027C131.777 127.987 131.787 127.947 131.807 127.917C131.827 127.877 131.857 127.847 131.877 127.817C131.907 127.787 131.937 127.757 131.967 127.737C132.007 127.707 132.037 127.697 132.077 127.677C136.627 125.877 140.827 122.977 144.877 121.487C151.127 119.187 157.357 117.707 163.897 115.617C173.247 112.617 183.307 111.077 192.947 109.267C197.237 108.457 200.797 106.427 203.637 103.187C200.357 103.537 197.047 102.617 194.067 102.637C185.227 102.717 170.577 102.697 150.107 102.597C144.727 102.557 139.087 102.297 134.987 98.9066C131.017 95.6166 129.917 91.0866 131.687 85.3266C134.037 77.6566 141.897 76.8366 148.507 78.7666C148.547 78.7866 148.577 78.7866 148.617 78.7966C148.657 78.8066 148.697 78.8066 148.737 78.8166C148.777 78.8166 148.817 78.8166 148.857 78.8166C148.897 78.8166 148.937 78.8066 148.977 78.8066C149.017 78.7966 149.057 78.7966 149.097 78.7866C149.137 78.7766 149.167 78.7666 149.207 78.7466C149.247 78.7366 149.287 78.7166 149.317 78.7066C149.357 78.6866 149.387 78.6666 149.427 78.6466C149.457 78.6266 149.487 78.6066 149.527 78.5766C149.557 78.5566 149.587 78.5366 149.617 78.5066C149.647 78.4766 149.667 78.4466 149.697 78.4166C149.717 78.3866 149.747 78.3566 149.767 78.3266C149.787 78.2966 149.817 78.2566 149.837 78.2266C149.847 78.1866 149.867 78.1566 149.887 78.1166C149.897 78.0866 149.917 78.0466 149.927 78.0066C149.937 77.9666 149.947 77.9366 149.957 77.8966C150.017 77.5766 149.987 77.3266 149.867 77.1366C149.597 76.7466 149.687 76.4966 150.147 76.3866L151.017 76.1766C147.587 74.4966 144.167 72.8166 140.767 71.1466C135.917 68.7666 132.937 65.5766 128.897 62.2266C125.827 59.6566 123.477 55.5966 126.527 51.8966C112.797 51.3266 99.127 51.4166 85.517 52.1766Z" /><path fill="#B0D8F2" d="M138.063,51.6382l-0.46,0.01c0.14,-0.02 0.3,-0.03 0.46,-0.01zM137.603,51.6482c-0.14,0.03 -0.26,0.07 -0.38,0.14c-0.43,0.25 -0.54,0.61 -0.32,1.07l3.78,7.86c0.05,0.1 0.11,0.21 0.17,0.3c0.07,0.1 0.14,0.2 0.21,0.29c0.08,0.08 0.16,0.17 0.24,0.25c0.09,0.08 0.18,0.15 0.27,0.22c0.1,0.06 0.2,0.12 0.3,0.18c0.1,0.05 0.21,0.1 0.32,0.14c0.11,0.04 0.22,0.08 0.33,0.1c0.11,0.03 0.23,0.05 0.34,0.06c4.22,0.44 8.13,0.65 11.74,0.65c42.42,0.04 84.83,-0.04 127.24,-0.24c11.39,-0.05 17.55,0.47 16.84,14.18c0,0.04 0,0.08 0.01,0.11c0,0.04 0.01,0.08 0.02,0.11c0.02,0.04 0.03,0.07 0.05,0.11c0.02,0.03 0.05,0.06 0.07,0.08c0.03,0.03 0.06,0.06 0.09,0.08c0.03,0.02 0.07,0.04 0.1,0.05c0.04,0.02 0.07,0.03 0.11,0.03c0.04,0.01 0.07,0.01 0.11,0.01l14.87,-0.31c0.3,8.97 -0.21,16.39 -1.53,22.27c-0.41,1.8398 -1.65,5.7098 -3.72,11.5998c-3.46,9.85 -8.63,16.82 -16.36,23.31c0.52,-5.91 -1.91,-10.12 -7.29,-12.61c-3.88,-1.79 -6.43,-0.55 -9.91,2.09c-4.37,3.31 -9.49,4.97 -15.37,4.98c-42.62,0.08 -85.23,0.1 -127.84,0.07l-0.24,-0.33c-0.02,-0.03 -0.04,-0.07 -0.06,-0.11c-0.02,-0.04 -0.03,-0.07 -0.04,-0.12c-0.01,-0.04 -0.01,-0.08 -0.01,-0.12c0,-0.04 0.01,-0.08 0.02,-0.12c0.01,-0.04 0.03,-0.08 0.05,-0.12c0.02,-0.03 0.04,-0.06 0.07,-0.09c0.02,-0.03 0.05,-0.06 0.09,-0.08c0.03,-0.03 0.07,-0.05 0.11,-0.06c4.55,-1.8 8.75,-4.7 12.79,-6.19c6.25,-2.3 12.48,-3.78 19.02,-5.87c9.35,-3 19.42,-4.54 29.06,-6.35c4.28,-0.81 7.84,-2.84 10.68,-6.08c9.09,-0.14 18.12,-0.16 27.09,-0.05c8.76,0.1 13.91,-0.62 17.37,-7.8398c1.74,-3.66 1.59,-7.23 -0.46,-10.7c-2.68,-4.53 -6.72,-6.76 -12.14,-6.68c-19.57,0.28 -39.13,0.4 -58.7,0.35c-10.08,-0.04 -17.39,0.29 -25.77,-2.1c-3.43,-1.68 -6.85,-3.35 -10.26,-5.02c-4.84,-2.38 -7.83,-5.57 -11.86,-8.92c-3.07,-2.57 -5.43,-6.63 -2.37,-10.33z" /><path fill="#FFFFFF" d="M299.26 52.7582C295.08 52.0682 292.27 51.7282 290.83 51.7182C239.91 51.4282 188.99 51.3982 138.07 51.6382C137.74 51.5982 137.46 51.6482 137.22 51.7882C136.79 52.0382 136.68 52.3982 136.9 52.8582L140.68 60.7182C140.74 60.8182 140.79 60.9282 140.86 61.0182C140.92 61.1182 140.99 61.2182 141.06 61.3082C141.14 61.3882 141.22 61.4782 141.31 61.5582C141.39 61.6382 141.48 61.7082 141.58 61.7782C141.67 61.8382 141.77 61.8982 141.87 61.9582C141.98 62.0082 142.08 62.0582 142.19 62.0982C142.3 62.1382 142.41 62.1782 142.52 62.1982C142.63 62.2282 142.75 62.2482 142.86 62.2582C147.08 62.6982 150.99 62.9082 154.61 62.9082C197.02 62.9482 239.43 62.8682 281.84 62.6682C293.24 62.6182 299.39 63.1382 298.68 76.8482C298.68 76.8882 298.68 76.9282 298.69 76.9582C298.69 76.9982 298.7 77.0382 298.72 77.0682C298.73 77.1082 298.75 77.1382 298.77 77.1782C298.79 77.2082 298.81 77.2382 298.84 77.2582C298.86 77.2882 298.89 77.3182 298.92 77.3382C298.96 77.3582 298.99 77.3782 299.02 77.3882C299.06 77.4082 299.1 77.4182 299.13 77.4182C299.17 77.4282 299.21 77.4282 299.25 77.4282L314.11 77.1182C314.49 65.4282 312.92 54.9782 299.26 52.7582Z" /><path fill="#488DCB" d="M150.148 76.3824C149.688 76.5024 149.598 76.7524 149.868 77.1424C149.988 77.3224 150.018 77.5824 149.958 77.8924C149.948 77.9324 149.938 77.9724 149.928 78.0124C149.908 78.0424 149.898 78.0824 149.888 78.1224C149.868 78.1524 149.848 78.1924 149.828 78.2224C149.808 78.2624 149.788 78.2924 149.768 78.3224C149.748 78.3624 149.718 78.3924 149.698 78.4224C149.668 78.4524 149.638 78.4824 149.608 78.5024C149.588 78.5324 149.558 78.5624 149.518 78.5824C149.488 78.6024 149.458 78.6324 149.428 78.6524C149.388 78.6724 149.358 78.6924 149.318 78.7024C149.278 78.7224 149.248 78.7324 149.208 78.7524C149.168 78.7624 149.138 78.7724 149.098 78.7824C149.058 78.7924 149.018 78.8024 148.978 78.8024C148.938 78.8124 148.898 78.8124 148.858 78.8124C148.818 78.8124 148.778 78.8124 148.738 78.8124C148.698 78.8124 148.658 78.8024 148.618 78.8024C148.578 78.7924 148.538 78.7824 148.508 78.7724C141.898 76.8324 134.038 77.6524 131.688 85.3324C129.918 91.0824 131.018 95.6124 134.988 98.9024C139.088 102.302 144.728 102.562 150.108 102.592C170.578 102.702 185.228 102.712 194.058 102.642C197.048 102.612 200.358 103.542 203.638 103.192C212.728 103.052 221.758 103.032 230.718 103.132C239.488 103.232 244.628 102.512 248.088 95.2924C249.838 91.6324 249.688 88.0724 247.628 84.5924C244.958 80.0724 240.908 77.8424 235.498 77.9124C215.928 78.2024 196.358 78.3124 176.798 78.2624C166.718 78.2324 159.398 78.5524 151.018 76.1724L150.148 76.3824Z" /><path fill="#4879A8" d="M80.4091 94.3735C79.1691 89.8635 77.1391 79.8435 72.3091 78.2635C70.0791 77.5335 67.5391 77.3935 64.6891 77.8735C64.4091 88.9635 65.9791 99.9635 69.3991 110.884C69.9791 112.704 70.6491 114.194 71.4191 115.334C71.4791 114.944 71.7691 114.944 72.2891 115.314C72.5891 115.534 72.9191 115.654 73.2691 115.684C74.5391 115.804 75.7691 115.684 76.9691 115.314C77.3291 115.204 77.6991 115.174 78.0691 115.234L79.8991 115.544C80.2891 115.604 80.6391 115.524 80.9591 115.304C82.3491 114.394 83.8691 113.754 85.4991 113.394C85.5091 113.394 85.5191 113.384 85.5391 113.374C85.5491 113.364 85.5691 113.344 85.5891 113.334C85.6191 113.314 85.6391 113.294 85.6591 113.274C85.6891 113.244 85.7191 113.224 85.7491 113.194C85.7791 113.164 85.8091 113.134 85.8391 113.094C85.8691 113.064 85.9091 113.024 85.9391 112.984C85.9791 112.954 86.0091 112.914 86.0491 112.864C86.0891 112.824 86.1191 112.784 86.1591 112.744C86.3191 112.564 86.5691 112.594 86.8991 112.834C86.9191 112.844 86.9491 112.854 86.9691 112.854C86.9891 112.864 87.0191 112.864 87.0391 112.854C87.0591 112.854 87.0891 112.854 87.1091 112.844C87.1291 112.834 87.1491 112.814 87.1691 112.804C87.1891 112.784 87.1991 112.764 87.2091 112.744C87.2191 112.724 87.2291 112.704 87.2391 112.674C87.2391 112.654 87.2391 112.634 87.2391 112.604C87.2291 112.584 87.2291 112.564 87.2191 112.534C86.8291 111.844 86.6491 111.094 86.6791 110.264C84.0191 105.214 81.9291 99.9135 80.4091 94.3735Z" /><path fill="#488DCB" d="M87.2201 112.535C87.2301 112.555 87.2301 112.585 87.2401 112.605C87.2401 112.625 87.2401 112.655 87.2301 112.675C87.2301 112.695 87.2201 112.725 87.2101 112.745C87.2001 112.765 87.1801 112.785 87.1701 112.795C87.1501 112.815 87.1301 112.825 87.1101 112.835C87.0901 112.845 87.0601 112.855 87.0401 112.855C87.0201 112.865 86.9901 112.855 86.9701 112.855C86.9501 112.845 86.9201 112.845 86.9001 112.825C86.5601 112.595 86.3201 112.565 86.1601 112.735C86.1201 112.785 86.0901 112.825 86.0501 112.865C86.0101 112.905 85.9801 112.945 85.9401 112.985C85.9101 113.025 85.8701 113.065 85.8401 113.095C85.8101 113.135 85.7801 113.165 85.7501 113.195C85.7201 113.225 85.6901 113.245 85.6601 113.275C85.6401 113.295 85.6101 113.315 85.5901 113.335C85.5701 113.345 85.5501 113.365 85.5401 113.375C85.5201 113.385 85.5101 113.385 85.5001 113.395C83.8601 113.755 82.3501 114.385 80.9601 115.305C80.6401 115.525 80.2801 115.605 79.9001 115.545L78.0701 115.235C77.7001 115.175 77.3301 115.205 76.9701 115.315C75.7701 115.685 74.5401 115.805 73.2701 115.685C72.9101 115.655 72.5801 115.535 72.2901 115.315C71.7701 114.945 71.4801 114.945 71.4201 115.335C73.4901 120.185 75.4901 123.905 77.4401 126.495C83.4101 134.455 91.0401 141.415 100.33 147.365C104.93 150.095 108.24 151.685 110.24 152.135C117.17 153.655 125.06 153.435 132.3 153.315C132.32 153.315 132.35 153.315 132.37 153.315C132.39 153.315 132.41 153.325 132.43 153.325C132.45 153.335 132.47 153.335 132.49 153.345C132.51 153.355 132.52 153.365 132.54 153.375C132.56 153.385 132.58 153.395 132.6 153.405C132.61 153.415 132.63 153.435 132.64 153.445C132.66 153.455 132.67 153.475 132.69 153.485C132.7 153.505 132.71 153.525 132.72 153.545C132.74 153.555 132.75 153.575 132.75 153.595C132.76 153.615 132.77 153.635 132.78 153.655C132.78 153.675 132.79 153.695 132.79 153.715C132.8 153.735 132.8 153.755 132.8 153.775C132.8 153.795 132.8 153.815 132.8 153.835C132.8 153.855 132.8 153.885 132.79 153.905C132.79 153.925 132.78 153.945 132.78 153.965C132.77 153.985 132.76 154.005 132.75 154.015C132.7 154.125 132.61 154.235 132.49 154.345C132.98 154.125 133.52 154.025 134.1 154.035C167.6 154.175 203.19 152.335 233.82 154.555C240.9 153.985 248.2 153.465 255.72 153.015C258.69 152.845 264.36 151.795 272.73 149.865L292.5 134.305C293.02 128.385 290.59 124.185 285.21 121.695C281.34 119.895 278.79 121.145 275.3 123.775C270.94 127.085 265.81 128.745 259.93 128.755C217.32 128.835 174.7 128.865 132.09 128.825C125.6 128.945 119.19 128.865 112.7 128.805C104.34 128.725 99.5201 125.585 93.6501 119.745C90.9601 117.075 89.0901 113.435 86.6801 110.265C86.6501 111.085 86.8301 111.845 87.2201 112.535Z" /><path fill="#4879A8" d="M101.241 194.411C102.721 199.061 105.341 203.971 107.601 208.581C110.101 213.731 113.661 217.511 117.351 221.771C119.281 223.991 125.001 226.851 125.011 229.941C125.061 243.441 127.551 253.991 132.261 266.851C133.951 271.521 136.581 276.221 138.811 280.901C141.921 287.471 145.671 293.311 149.271 299.491C152.311 304.721 157.801 312.111 165.741 321.661C170.101 326.901 175.021 331.581 179.931 336.241C181.101 337.341 181.571 337.101 181.351 335.511L179.711 323.131C179.771 323.641 179.751 324.071 179.651 324.441C179.501 324.931 179.341 324.941 179.141 324.461L172.581 308.841L163.811 309.081C163.561 309.091 163.311 309.071 163.061 309.031C162.821 308.991 162.581 308.921 162.351 308.821C162.121 308.731 161.901 308.621 161.691 308.481C161.481 308.341 161.291 308.181 161.121 308.001C155.021 301.861 151.181 289.431 149.001 281.211C142.931 258.371 140.821 237.631 146.181 214.851C146.281 214.441 146.651 213.491 147.301 212.001C147.231 211.691 147.051 211.541 146.751 211.561C134.011 212.551 121.751 213.731 115.801 199.711C114.701 197.121 114.211 192.841 114.301 186.861C115.821 173.501 121.891 162.661 132.491 154.351C132.611 154.231 132.701 154.121 132.751 154.021C132.761 154.001 132.771 153.981 132.781 153.961C132.781 153.941 132.791 153.921 132.791 153.901C132.791 153.881 132.801 153.861 132.801 153.841C132.801 153.821 132.801 153.801 132.801 153.781C132.801 153.751 132.801 153.731 132.791 153.711C132.791 153.691 132.781 153.671 132.781 153.651C132.771 153.631 132.761 153.611 132.751 153.591C132.741 153.581 132.731 153.561 132.721 153.541C132.711 153.521 132.701 153.511 132.691 153.491C132.671 153.471 132.661 153.461 132.641 153.441C132.631 153.431 132.611 153.421 132.601 153.401C132.581 153.391 132.561 153.381 132.541 153.371C132.521 153.361 132.501 153.351 132.491 153.341C132.471 153.341 132.451 153.331 132.431 153.321C132.411 153.321 132.391 153.321 132.371 153.311C132.341 153.311 132.321 153.311 132.301 153.311C125.061 153.431 117.171 153.661 110.241 152.131C108.241 151.691 104.931 150.101 100.331 147.361C96.0909 163.591 96.3909 179.271 101.241 194.411Z" /><path fill="#B0D8F2" d="M255.719 153.019C248.199 153.469 240.899 153.979 233.829 154.559C220.049 157.289 206.069 159.719 192.849 164.189C185.679 166.609 178.449 168.589 171.709 172.249C163.859 176.519 158.179 179.719 151.879 185.849C151.829 185.899 151.789 185.959 151.769 186.019C151.759 186.089 151.759 186.159 151.769 186.229C151.789 186.289 151.829 186.349 151.879 186.399C151.929 186.449 151.989 186.489 152.059 186.499L152.399 186.589L229.939 187.059C234.529 182.349 237.479 179.409 238.789 178.229C250.749 167.479 258.529 160.919 262.129 158.539C265.849 156.089 269.129 152.779 272.729 149.869C264.369 151.799 258.699 152.849 255.719 153.019Z" /><path fill="#5C98C3" d="M134.105 154.032C133.515 154.022 132.985 154.132 132.495 154.342C121.885 162.662 115.825 173.502 114.305 186.862L152.405 186.592L152.055 186.502C151.985 186.482 151.925 186.452 151.875 186.402C151.825 186.352 151.795 186.292 151.775 186.222C151.755 186.162 151.755 186.092 151.775 186.022C151.795 185.962 151.825 185.902 151.875 185.852C158.175 179.722 163.865 176.512 171.705 172.252C178.445 168.582 185.685 166.602 192.845 164.192C206.075 159.722 220.045 157.292 233.825 154.562C203.185 152.332 167.605 154.182 134.105 154.032Z" /><path fill="#488DCB" d="M114.303 186.864C114.203 192.844 114.703 197.124 115.803 199.714C121.753 213.734 134.013 212.554 146.753 211.564C147.053 211.544 147.233 211.684 147.303 212.004L176.623 211.304C177.023 211.294 177.383 211.414 177.693 211.654C178.453 212.244 179.153 212.344 179.813 211.954L210.313 211.324C215.903 202.964 222.443 194.874 229.933 187.054L152.403 186.594L114.303 186.864Z" /><path fill="#B0D8F2" d="M179.817 211.958C175.967 216.818 173.297 221.438 171.797 225.818C169.207 233.408 166.717 242.778 166.017 251.148C164.337 271.238 167.787 285.878 172.577 308.839L179.147 324.458C179.337 324.938 179.507 324.928 179.647 324.438C179.757 324.068 179.777 323.638 179.717 323.138C178.977 307.958 179.957 293.798 182.657 280.668C183.997 274.168 186.177 265.818 189.177 255.648C190.887 249.828 193.617 243.878 195.877 238.038C198.247 231.938 201.657 226.328 204.567 220.428C206.087 217.368 208.727 214.768 210.307 211.328L179.817 211.958Z" /><path fill="#5C98C3" d="M177.688 211.656C177.378 211.416 177.018 211.296 176.628 211.306L147.298 212.006C146.648 213.496 146.278 214.446 146.178 214.846C140.818 237.626 142.928 258.366 148.998 281.216C151.178 289.436 155.018 301.866 161.118 308.006C161.298 308.186 161.488 308.346 161.688 308.476C161.898 308.616 162.118 308.736 162.348 308.826C162.578 308.916 162.818 308.986 163.068 309.026C163.308 309.076 163.558 309.096 163.808 309.086L172.578 308.836C167.788 285.876 164.338 271.236 166.018 251.146C166.718 242.776 169.208 233.406 171.798 225.816C173.288 221.436 175.968 216.816 179.818 211.956C179.158 212.346 178.448 212.236 177.688 211.656Z" /></g></svg>
