<svg xmlns="http://www.w3.org/2000/svg" version="1.1" viewBox="0.00 0.00 400.00 400.00"><g><path fill="#385b83" d=" M 90.72 98.96 Q 90.35 113.75 94.91 128.31 Q 95.68 130.74 96.71 132.27" /><path fill="#386594" d=" M 96.71 132.27 Q 99.47 138.73 102.07 142.19 Q 110.04 152.81 122.44 160.74" /><path fill="#385b83" d=" M 122.44 160.74 Q 116.78 182.38 123.25 202.57 C 124.57 206.70 126.90 211.07 128.91 215.17 C 131.14 219.75 134.31 223.11 137.59 226.89 C 139.31 228.87 144.40 231.41 144.41 234.16 C 144.45 246.16 146.67 255.54 150.86 266.97 C 152.37 271.12 154.71 275.30 156.69 279.46 C 159.46 285.30 162.80 290.50 166.00 295.99 Q 170.06 302.96 180.66 315.70 C 184.54 320.36 188.92 324.52 193.29 328.66 Q 194.85 330.13 194.56 328.01 L 193.10 317.01" /><path fill="#6c8aa8" d=" M 193.10 317.01 Q 192.11 296.77 195.72 279.26 Q 197.51 270.58 201.52 257.01 C 203.04 251.84 205.47 246.55 207.48 241.36 C 209.59 235.93 212.63 230.95 215.22 225.70 C 216.57 222.98 218.92 220.67 220.33 217.61" /><path fill="#386594" d=" M 220.33 217.61 Q 227.80 206.46 237.80 196.03" /><path fill="#6c8aa8" d=" M 237.80 196.03 Q 243.93 189.76 245.68 188.18 Q 261.65 173.85 266.45 170.68 C 269.76 168.50 272.68 165.56 275.89 162.97" /><path fill="#386594" d=" M 275.89 162.97 L 293.49 149.13" /><path fill="#6c8aa8" d=" M 293.49 149.13 C 300.37 143.36 304.97 137.16 308.05 128.40 Q 310.81 120.55 311.36 118.09 Q 313.13 110.25 312.72 98.29" /><path fill="#949eae" d=" M 312.72 98.29 C 313.06 87.90 311.66 78.61 299.50 76.63 Q 293.92 75.72 292.00 75.71 Q 224.02 75.32 156.03 75.64" /><path fill="#6c8aa8" d=" M 156.03 75.64 L 145.76 75.87" /><path fill="#426a90" d=" M 145.76 75.87 Q 127.43 75.10 109.26 76.12 Q 103.25 76.46 97.72 78.72 C 90.77 81.56 90.44 91.76 90.72 98.96" /><path fill="#86b8db" d=" M 145.76 75.87 C 143.04 79.16 145.14 82.77 147.87 85.05 C 151.46 88.03 154.12 90.87 158.43 92.98 Q 162.98 95.21 167.56 97.45" /><path fill="#5293c7" d=" M 167.56 97.45 L 166.78 97.64 Q 166.17 97.79 166.53 98.31 Q 166.70 98.56 166.61 98.98 A 1.03 1.02 13.8 0 1 165.32 99.76 C 159.44 98.04 152.44 98.77 150.35 105.59 Q 147.99 113.27 153.29 117.66 C 156.94 120.68 161.96 120.91 166.75 120.94 Q 194.07 121.08 205.87 120.98 C 208.53 120.96 211.47 121.78 214.39 121.47" /><path fill="#86b8db" d=" M 214.39 121.47 Q 210.60 125.79 204.88 126.87 C 196.30 128.48 187.34 129.85 179.02 132.52 C 173.20 134.38 167.65 135.69 162.09 137.74 C 158.49 139.06 154.75 141.64 150.70 143.24 A 0.48 0.47 60.5 0 0 150.50 143.97 L 150.71 144.26" /><path fill="#5293c7" d=" M 150.71 144.26 C 144.93 144.37 139.23 144.30 133.45 144.24 C 126.01 144.17 121.72 141.38 116.50 136.19 C 114.10 133.81 112.44 130.58 110.29 127.76" /><path fill="#5289b6" d=" M 110.29 127.76 Q 106.74 121.02 104.71 113.63 C 103.61 109.62 101.80 100.71 97.50 99.31 Q 94.53 98.33 90.72 98.96" /><path fill="#4883ba" d=" M 110.29 127.76 Q 110.25 128.86 110.77 129.78 A 0.20 0.20 0.0 0 1 110.49 130.04 Q 110.04 129.73 109.83 129.96 A 0.96 0.10 -50.3 0 1 109.24 130.54 Q 107.06 131.02 105.20 132.24 Q 104.77 132.53 104.26 132.45 L 102.63 132.18 Q 102.13 132.10 101.65 132.25 Q 100.05 132.74 98.36 132.58 Q 97.88 132.54 97.48 132.25 Q 96.79 131.75 96.71 132.27" /><path fill="#d8ecf9" d=" M 156.03 75.64 Q 155.60 75.59 155.28 75.77 Q 154.70 76.11 154.99 76.72 L 158.36 83.71 A 2.44 2.42 80.1 0 0 160.30 85.08 Q 165.93 85.66 170.75 85.66 Q 227.38 85.71 284.00 85.44 C 294.14 85.40 299.62 85.86 298.99 98.05 A 0.49 0.49 0.0 0 0 299.49 98.57 L 312.72 98.29" /><path fill="#7cb3df" d=" M 293.49 149.13 Q 294.18 141.24 287.00 137.92 C 283.55 136.32 281.28 137.43 278.18 139.77 Q 272.35 144.19 264.50 144.20 Q 207.60 144.31 150.71 144.26" /><path fill="#7cb3df" d=" M 214.39 121.47 Q 226.53 121.28 238.50 121.42 C 246.30 121.51 250.88 120.87 253.96 114.45 Q 256.29 109.57 253.55 104.94 Q 249.98 98.90 242.75 99.00 Q 216.62 99.38 190.50 99.31 C 181.53 99.28 175.02 99.57 167.56 97.45" /><path fill="#7cb3df" d=" M 275.89 162.97 Q 264.72 165.54 260.75 165.77 Q 250.71 166.37 241.26 167.14" /><path fill="#5293c7" d=" M 241.26 167.14 C 213.99 165.16 182.32 166.80 152.50 166.67 Q 151.72 166.66 151.07 166.95" /><path fill="#4883ba" d=" M 151.07 166.95 Q 151.23 166.80 151.30 166.66 A 0.44 0.44 0.0 0 0 150.90 166.03 C 144.45 166.14 137.43 166.34 131.26 164.98 Q 128.59 164.39 122.44 160.74" /><path fill="#5289b6" d=" M 151.07 166.95 Q 136.91 178.04 134.88 195.86" /><path fill="#4883ba" d=" M 134.88 195.86 Q 134.75 203.83 136.21 207.28 C 141.51 219.75 152.42 218.70 163.76 217.82 Q 164.16 217.79 164.25 218.21" /><path fill="#5289b6" d=" M 164.25 218.21 Q 163.38 220.20 163.25 220.74 C 158.48 240.99 160.36 259.43 165.76 279.74 C 167.70 287.05 171.12 298.10 176.55 303.56 A 3.23 3.20 -22.8 0 0 178.94 304.52 L 186.75 304.30" /><path fill="#7ca9cd" d=" M 186.75 304.30 L 192.59 318.19 Q 192.85 318.83 193.04 318.17 Q 193.18 317.68 193.10 317.01" /><path fill="#7cb3df" d=" M 237.80 196.03 L 168.79 195.62" /><path fill="#86b8db" d=" M 168.79 195.62 L 168.48 195.54 A 0.35 0.34 29.9 0 1 168.32 194.96 C 173.93 189.51 178.99 186.66 185.97 182.87 C 191.97 179.61 198.41 177.85 204.79 175.70 C 216.56 171.73 229.00 169.57 241.26 167.14" /><path fill="#5293c7" d=" M 168.79 195.62 L 134.88 195.86" /><path fill="#86b8db" d=" M 186.75 304.30 C 182.48 283.89 179.41 270.87 180.91 253.01 C 181.53 245.57 183.75 237.24 186.05 230.49 Q 188.05 224.65 193.19 218.17" /><path fill="#7cb3df" d=" M 220.33 217.61 L 193.19 218.17" /><path fill="#5293c7" d=" M 193.19 218.17 Q 192.31 218.68 191.30 217.90 Q 190.88 217.58 190.35 217.59 L 164.25 218.21" /></g><path fill="#283c5d" d=" M 236.11 228.47 Q 235.89 228.91 236.39 228.92 Q 272.61 229.04 308.75 228.96 C 317.56 228.93 319.32 243.26 310.66 246.39 Q 308.64 247.12 304.27 247.12 Q 265.98 247.13 227.24 247.07 Q 226.62 247.06 226.28 247.57 Q 225.30 249.02 224.54 250.93 Q 220.72 260.63 218.09 270.71 C 217.76 271.95 216.66 273.54 216.82 274.94 Q 216.90 275.66 217.63 275.66 Q 255.66 275.75 291.50 275.70 Q 293.59 275.69 296.01 277.45 C 300.06 280.40 300.60 286.42 297.71 290.25 C 295.74 292.89 291.77 293.47 288.20 293.48 Q 251.03 293.52 213.86 293.50 Q 213.25 293.50 213.20 294.11 C 212.46 303.27 212.17 312.21 212.91 320.42 Q 212.96 320.97 213.51 320.97 Q 236.54 320.99 259.49 320.96 C 265.46 320.96 270.36 328.59 267.09 333.89 Q 264.16 338.65 257.50 338.65 Q 237.55 338.64 217.57 338.60 A 0.97 0.97 0.0 0 0 216.73 340.06 Q 219.00 343.89 218.54 348.49 C 218.34 350.49 216.05 354.32 214.38 355.56 C 209.48 359.20 202.54 358.02 197.91 354.60 C 193.80 351.57 189.19 349.31 185.39 345.89 C 182.59 343.36 179.21 342.04 176.61 339.14 Q 176.18 338.67 175.56 338.67 Q 142.24 338.80 109.25 338.68 C 105.42 338.67 101.95 339.10 98.80 337.26 C 93.54 334.19 93.25 327.21 97.67 323.25 Q 100.13 321.04 102.99 321.05 Q 131.38 321.08 159.68 321.07 A 0.37 0.37 0.0 0 0 160.00 320.50 Q 157.59 316.58 154.78 312.96 C 151.23 308.38 149.59 304.84 146.90 301.13 C 144.30 297.54 142.28 293.52 140.37 289.53 C 139.73 288.20 138.73 287.21 138.16 285.93 Q 135.64 280.21 133.53 274.33 C 133.06 273.04 132.13 271.93 131.65 270.54 Q 126.83 256.70 125.74 242.08 Q 125.70 241.59 125.34 241.26 Q 118.93 235.27 113.98 228.09 C 112.83 226.42 112.07 224.09 110.66 222.23 C 109.16 220.25 108.55 218.83 107.73 216.73 Q 107.54 216.26 107.02 216.26 Q 99.86 216.35 92.76 216.30 Q 83.77 216.24 82.64 207.99 Q 82.42 206.39 83.43 203.91 C 86.32 196.88 95.26 198.52 101.12 198.56 A 0.72 0.72 0.0 0 0 101.83 197.70 Q 98.88 182.53 101.54 167.30 A 1.29 1.28 22.6 0 0 101.01 166.03 C 98.15 164.02 95.60 162.59 93.04 159.88 C 90.92 157.63 88.51 156.17 86.81 153.60 C 84.66 150.37 82.01 147.28 80.52 143.87 C 75.54 132.47 72.04 119.95 71.61 106.74 C 71.12 91.46 70.51 75.65 83.88 65.28 C 86.82 63.00 89.69 62.08 92.74 60.64 C 97.62 58.32 104.16 57.83 109.50 57.64 Q 119.50 57.28 129.50 57.29 Q 208.25 57.34 287.00 57.36 C 299.42 57.37 308.78 58.30 318.69 64.46 Q 320.70 65.70 322.71 68.18 C 324.31 70.15 326.21 71.69 327.32 73.91 C 331.53 82.29 331.73 90.81 331.79 100.00 Q 331.90 118.62 326.16 136.43 Q 325.98 137.01 326.58 137.00 Q 331.14 136.97 343.49 136.90 C 354.42 136.83 354.84 154.82 343.01 154.91 Q 328.85 155.02 314.70 154.97 A 1.08 1.06 19.4 0 0 313.87 155.36 C 312.13 157.43 309.95 158.96 308.08 161.32 C 306.28 163.57 302.76 165.23 300.43 167.68 C 298.25 169.98 295.32 171.31 293.05 173.17 C 289.99 175.66 287.43 177.25 284.92 179.43 Q 283.73 180.46 285.30 180.46 Q 296.50 180.46 307.99 180.49 C 313.09 180.50 316.12 187.36 314.98 191.49 Q 313.17 198.07 305.50 198.12 Q 284.70 198.26 263.91 198.32 Q 263.43 198.32 263.02 198.57 C 258.98 200.96 256.84 204.16 253.35 207.09 C 250.99 209.08 249.54 211.61 247.39 213.56 C 244.36 216.32 242.76 219.49 240.04 222.48 C 238.18 224.53 237.19 226.21 236.11 228.47 Z M 90.72 98.96 Q 90.35 113.75 94.91 128.31 Q 95.68 130.74 96.71 132.27 Q 99.47 138.73 102.07 142.19 Q 110.04 152.81 122.44 160.74 Q 116.78 182.38 123.25 202.57 C 124.57 206.70 126.90 211.07 128.91 215.17 C 131.14 219.75 134.31 223.11 137.59 226.89 C 139.31 228.87 144.40 231.41 144.41 234.16 C 144.45 246.16 146.67 255.54 150.86 266.97 C 152.37 271.12 154.71 275.30 156.69 279.46 C 159.46 285.30 162.80 290.50 166.00 295.99 Q 170.06 302.96 180.66 315.70 C 184.54 320.36 188.92 324.52 193.29 328.66 Q 194.85 330.13 194.56 328.01 L 193.10 317.01 Q 192.11 296.77 195.72 279.26 Q 197.51 270.58 201.52 257.01 C 203.04 251.84 205.47 246.55 207.48 241.36 C 209.59 235.93 212.63 230.95 215.22 225.70 C 216.57 222.98 218.92 220.67 220.33 217.61 Q 227.80 206.46 237.80 196.03 Q 243.93 189.76 245.68 188.18 Q 261.65 173.85 266.45 170.68 C 269.76 168.50 272.68 165.56 275.89 162.97 L 293.49 149.13 C 300.37 143.36 304.97 137.16 308.05 128.40 Q 310.81 120.55 311.36 118.09 Q 313.13 110.25 312.72 98.29 C 313.06 87.90 311.66 78.61 299.50 76.63 Q 293.92 75.72 292.00 75.71 Q 224.02 75.32 156.03 75.64 L 145.76 75.87 Q 127.43 75.10 109.26 76.12 Q 103.25 76.46 97.72 78.72 C 90.77 81.56 90.44 91.76 90.72 98.96 Z" /><path fill="#5c98c3" d=" M 145.76 75.87 C 143.04 79.16 145.14 82.77 147.87 85.05 C 151.46 88.03 154.12 90.87 158.43 92.98 Q 162.98 95.21 167.56 97.45 L 166.78 97.64 Q 166.17 97.79 166.53 98.31 Q 166.70 98.56 166.61 98.98 A 1.03 1.02 13.8 0 1 165.32 99.76 C 159.44 98.04 152.44 98.77 150.35 105.59 Q 147.99 113.27 153.29 117.66 C 156.94 120.68 161.96 120.91 166.75 120.94 Q 194.07 121.08 205.87 120.98 C 208.53 120.96 211.47 121.78 214.39 121.47 Q 210.60 125.79 204.88 126.87 C 196.30 128.48 187.34 129.85 179.02 132.52 C 173.20 134.38 167.65 135.69 162.09 137.74 C 158.49 139.06 154.75 141.64 150.70 143.24 A 0.48 0.47 60.5 0 0 150.50 143.97 L 150.71 144.26 C 144.93 144.37 139.23 144.30 133.45 144.24 C 126.01 144.17 121.72 141.38 116.50 136.19 C 114.10 133.81 112.44 130.58 110.29 127.76 Q 106.74 121.02 104.71 113.63 C 103.61 109.62 101.80 100.71 97.50 99.31 Q 94.53 98.33 90.72 98.96 C 90.44 91.76 90.77 81.56 97.72 78.72 Q 103.25 76.46 109.26 76.12 Q 127.43 75.10 145.76 75.87 Z" /><path fill="#b0d8f2" d=" M 156.03 75.64 Q 155.60 75.59 155.28 75.77 Q 154.70 76.11 154.99 76.72 L 158.36 83.71 A 2.44 2.42 80.1 0 0 160.30 85.08 Q 165.93 85.66 170.75 85.66 Q 227.38 85.71 284.00 85.44 C 294.14 85.40 299.62 85.86 298.99 98.05 A 0.49 0.49 0.0 0 0 299.49 98.57 L 312.72 98.29 Q 313.13 110.25 311.36 118.09 Q 310.81 120.55 308.05 128.40 C 304.97 137.16 300.37 143.36 293.49 149.13 Q 294.18 141.24 287.00 137.92 C 283.55 136.32 281.28 137.43 278.18 139.77 Q 272.35 144.19 264.50 144.20 Q 207.60 144.31 150.71 144.26 L 150.50 143.97 A 0.48 0.47 60.5 0 1 150.70 143.24 C 154.75 141.64 158.49 139.06 162.09 137.74 C 167.65 135.69 173.20 134.38 179.02 132.52 C 187.34 129.85 196.30 128.48 204.88 126.87 Q 210.60 125.79 214.39 121.47 Q 226.53 121.28 238.50 121.42 C 246.30 121.51 250.88 120.87 253.96 114.45 Q 256.29 109.57 253.55 104.94 Q 249.98 98.90 242.75 99.00 Q 216.62 99.38 190.50 99.31 C 181.53 99.28 175.02 99.57 167.56 97.45 Q 162.98 95.21 158.43 92.98 C 154.12 90.87 151.46 88.03 147.87 85.05 C 145.14 82.77 143.04 79.16 145.76 75.87 L 156.03 75.64 Z" /><path fill="#ffffff" d=" M 312.72 98.29 L 299.49 98.57 A 0.49 0.49 0.0 0 1 298.99 98.05 C 299.62 85.86 294.14 85.40 284.00 85.44 Q 227.38 85.71 170.75 85.66 Q 165.93 85.66 160.30 85.08 A 2.44 2.42 80.1 0 1 158.36 83.71 L 154.99 76.72 Q 154.70 76.11 155.28 75.77 Q 155.60 75.59 156.03 75.64 Q 224.02 75.32 292.00 75.71 Q 293.92 75.72 299.50 76.63 C 311.66 78.61 313.06 87.90 312.72 98.29 Z" /><path fill="#488dcb" d=" M 167.56 97.45 C 175.02 99.57 181.53 99.28 190.50 99.31 Q 216.62 99.38 242.75 99.00 Q 249.98 98.90 253.55 104.94 Q 256.29 109.57 253.96 114.45 C 250.88 120.87 246.30 121.51 238.50 121.42 Q 226.53 121.28 214.39 121.47 C 211.47 121.78 208.53 120.96 205.87 120.98 Q 194.07 121.08 166.75 120.94 C 161.96 120.91 156.94 120.68 153.29 117.66 Q 147.99 113.27 150.35 105.59 C 152.44 98.77 159.44 98.04 165.32 99.76 A 1.03 1.02 13.8 0 0 166.61 98.98 Q 166.70 98.56 166.53 98.31 Q 166.17 97.79 166.78 97.64 L 167.56 97.45 Z" /><path fill="#4879a8" d=" M 110.29 127.76 Q 110.25 128.86 110.77 129.78 A 0.20 0.20 0.0 0 1 110.49 130.04 Q 110.04 129.73 109.83 129.96 A 0.96 0.10 -50.3 0 1 109.24 130.54 Q 107.06 131.02 105.20 132.24 Q 104.77 132.53 104.26 132.45 L 102.63 132.18 Q 102.13 132.10 101.65 132.25 Q 100.05 132.74 98.36 132.58 Q 97.88 132.54 97.48 132.25 Q 96.79 131.75 96.71 132.27 Q 95.68 130.74 94.91 128.31 Q 90.35 113.75 90.72 98.96 Q 94.53 98.33 97.50 99.31 C 101.80 100.71 103.61 109.62 104.71 113.63 Q 106.74 121.02 110.29 127.76 Z" /><path fill="#488dcb" d=" M 110.29 127.76 C 112.44 130.58 114.10 133.81 116.50 136.19 C 121.72 141.38 126.01 144.17 133.45 144.24 C 139.23 144.30 144.93 144.37 150.71 144.26 Q 207.60 144.31 264.50 144.20 Q 272.35 144.19 278.18 139.77 C 281.28 137.43 283.55 136.32 287.00 137.92 Q 294.18 141.24 293.49 149.13 L 275.89 162.97 Q 264.72 165.54 260.75 165.77 Q 250.71 166.37 241.26 167.14 C 213.99 165.16 182.32 166.80 152.50 166.67 Q 151.72 166.66 151.07 166.95 Q 151.23 166.80 151.30 166.66 A 0.44 0.44 0.0 0 0 150.90 166.03 C 144.45 166.14 137.43 166.34 131.26 164.98 Q 128.59 164.39 122.44 160.74 Q 110.04 152.81 102.07 142.19 Q 99.47 138.73 96.71 132.27 Q 96.79 131.75 97.48 132.25 Q 97.88 132.54 98.36 132.58 Q 100.05 132.74 101.65 132.25 Q 102.13 132.10 102.63 132.18 L 104.26 132.45 Q 104.77 132.53 105.20 132.24 Q 107.06 131.02 109.24 130.54 A 0.96 0.10 -50.3 0 0 109.83 129.96 Q 110.04 129.73 110.49 130.04 A 0.20 0.20 0.0 0 0 110.77 129.78 Q 110.25 128.86 110.29 127.76 Z" /><path fill="#4879a8" d=" M 122.44 160.74 Q 128.59 164.39 131.26 164.98 C 137.43 166.34 144.45 166.14 150.90 166.03 A 0.44 0.44 0.0 0 1 151.30 166.66 Q 151.23 166.80 151.07 166.95 Q 136.91 178.04 134.88 195.86 Q 134.75 203.83 136.21 207.28 C 141.51 219.75 152.42 218.70 163.76 217.82 Q 164.16 217.79 164.25 218.21 Q 163.38 220.20 163.25 220.74 C 158.48 240.99 160.36 259.43 165.76 279.74 C 167.70 287.05 171.12 298.10 176.55 303.56 A 3.23 3.20 -22.8 0 0 178.94 304.52 L 186.75 304.30 L 192.59 318.19 Q 192.85 318.83 193.04 318.17 Q 193.18 317.68 193.10 317.01 L 194.56 328.01 Q 194.85 330.13 193.29 328.66 C 188.92 324.52 184.54 320.36 180.66 315.70 Q 170.06 302.96 166.00 295.99 C 162.80 290.50 159.46 285.30 156.69 279.46 C 154.71 275.30 152.37 271.12 150.86 266.97 C 146.67 255.54 144.45 246.16 144.41 234.16 C 144.40 231.41 139.31 228.87 137.59 226.89 C 134.31 223.11 131.14 219.75 128.91 215.17 C 126.90 211.07 124.57 206.70 123.25 202.57 Q 116.78 182.38 122.44 160.74 Z" /><path fill="#b0d8f2" d=" M 275.89 162.97 C 272.68 165.56 269.76 168.50 266.45 170.68 Q 261.65 173.85 245.68 188.18 Q 243.93 189.76 237.80 196.03 L 168.79 195.62 L 168.48 195.54 A 0.35 0.34 29.9 0 1 168.32 194.96 C 173.93 189.51 178.99 186.66 185.97 182.87 C 191.97 179.61 198.41 177.85 204.79 175.70 C 216.56 171.73 229.00 169.57 241.26 167.14 Q 250.71 166.37 260.75 165.77 Q 264.72 165.54 275.89 162.97 Z" /><path fill="#5c98c3" d=" M 241.26 167.14 C 229.00 169.57 216.56 171.73 204.79 175.70 C 198.41 177.85 191.97 179.61 185.97 182.87 C 178.99 186.66 173.93 189.51 168.32 194.96 A 0.35 0.34 29.9 0 0 168.48 195.54 L 168.79 195.62 L 134.88 195.86 Q 136.91 178.04 151.07 166.95 Q 151.72 166.66 152.50 166.67 C 182.32 166.80 213.99 165.16 241.26 167.14 Z" /><path fill="#488dcb" d=" M 168.79 195.62 L 237.80 196.03 Q 227.80 206.46 220.33 217.61 L 193.19 218.17 Q 192.31 218.68 191.30 217.90 Q 190.88 217.58 190.35 217.59 L 164.25 218.21 Q 164.16 217.79 163.76 217.82 C 152.42 218.70 141.51 219.75 136.21 207.28 Q 134.75 203.83 134.88 195.86 L 168.79 195.62 Z" /><path fill="#b0d8f2" d=" M 220.33 217.61 C 218.92 220.67 216.57 222.98 215.22 225.70 C 212.63 230.95 209.59 235.93 207.48 241.36 C 205.47 246.55 203.04 251.84 201.52 257.01 Q 197.51 270.58 195.72 279.26 Q 192.11 296.77 193.10 317.01 Q 193.18 317.68 193.04 318.17 Q 192.85 318.83 192.59 318.19 L 186.75 304.30 C 182.48 283.89 179.41 270.87 180.91 253.01 C 181.53 245.57 183.75 237.24 186.05 230.49 Q 188.05 224.65 193.19 218.17 L 220.33 217.61 Z" /><path fill="#5c98c3" d=" M 193.19 218.17 Q 188.05 224.65 186.05 230.49 C 183.75 237.24 181.53 245.57 180.91 253.01 C 179.41 270.87 182.48 283.89 186.75 304.30 L 178.94 304.52 A 3.23 3.20 -22.8 0 1 176.55 303.56 C 171.12 298.10 167.70 287.05 165.76 279.74 C 160.36 259.43 158.48 240.99 163.25 220.74 Q 163.38 220.20 164.25 218.21 L 190.35 217.59 Q 190.88 217.58 191.30 217.90 Q 192.31 218.68 193.19 218.17 Z" /></svg>
